<svg width="20" height="20" viewBox="0 0 20 20" fill="none" xmlns="http://www.w3.org/2000/svg">
<g clip-path="url(#clip0_1583_820)">
<path d="M19.9894 10.1868C19.9894 9.36743 19.9214 8.76949 19.7741 8.14941H10.1992V11.8477H15.8195C15.7062 12.7668 15.0943 14.1509 13.7345 15.081L13.7155 15.2048L16.7429 17.4967L16.9526 17.5171C18.8789 15.7786 19.9894 13.2208 19.9894 10.1868Z" fill="#4285F4"/>
<path d="M10.1991 19.9312C12.9526 19.9312 15.2642 19.0453 16.9526 17.5173L13.7345 15.0812C12.8733 15.6681 11.7175 16.0777 10.1991 16.0777C7.5023 16.0777 5.2134 14.3393 4.39747 11.9365L4.27787 11.9464L1.12991 14.3271L1.08875 14.439C2.76576 17.6944 6.21048 19.9312 10.1991 19.9312Z" fill="#34A853"/>
<path d="M4.3976 11.9363C4.18231 11.3163 4.05771 10.6518 4.05771 9.96534C4.05771 9.27878 4.18231 8.61443 4.38627 7.99435L4.38057 7.86229L1.19316 5.44336L1.08888 5.49183C0.397698 6.84275 0.00109863 8.35977 0.00109863 9.96534C0.00109863 11.5709 0.397698 13.0879 1.08888 14.4388L4.3976 11.9363Z" fill="#FBBC05"/>
<path d="M10.1992 3.85336C12.1141 3.85336 13.4059 4.66168 14.1424 5.33718L17.0206 2.59107C15.2529 0.985496 12.9526 0 10.1992 0C6.21051 0 2.76579 2.23672 1.08878 5.49214L4.38617 7.99466C5.21343 5.59183 7.50233 3.85336 10.1992 3.85336Z" fill="#EB4335"/>
</g>
<defs>
<clipPath id="clip0_1583_820">
<rect width="20" height="20" fill="white"/>
</clipPath>
</defs>
</svg>
