<svg width="12" height="12" viewBox="0 0 12 12" fill="none" xmlns="http://www.w3.org/2000/svg">
<path d="M7.00917 1.0475L8.03584 3.10083C8.17584 3.38667 8.54917 3.66083 8.86417 3.71333L10.725 4.0225C11.915 4.22083 12.195 5.08417 11.3375 5.93583L9.89084 7.3825C9.64584 7.6275 9.51167 8.1 9.58751 8.43833L10.0017 10.2292C10.3283 11.6467 9.57584 12.195 8.32167 11.4542L6.57751 10.4217C6.26251 10.235 5.74334 10.235 5.42251 10.4217L3.67834 11.4542C2.43001 12.195 1.67167 11.6408 1.99834 10.2292L2.41251 8.43833C2.48834 8.1 2.35417 7.6275 2.10917 7.3825L0.662508 5.93583C-0.189159 5.08417 0.0850081 4.22083 1.27501 4.0225L3.13584 3.71333C3.44501 3.66083 3.81834 3.38667 3.95834 3.10083L4.98501 1.0475C5.54501 -0.0666667 6.45501 -0.0666667 7.00917 1.0475Z" fill="#FBBE21"/>
</svg>
